<svg width="60" height="60" viewBox="0 0 60 60" fill="none" xmlns="http://www.w3.org/2000/svg">
<path fill-rule="evenodd" clip-rule="evenodd" d="M26.1916 0.0548064C26.1127 0.0705773 25.5818 0.159946 25.0192 0.244057C24.4567 0.333426 23.8416 0.443822 23.6524 0.491135C23.4631 0.538447 23.0898 0.627816 22.8217 0.690899C22.5536 0.753983 22.2224 0.838094 22.091 0.88015C21.9595 0.922206 21.581 1.0326 21.2603 1.12723C20.7083 1.28494 19.047 1.86846 18.6212 2.05245C16.3343 3.03551 15.02 3.73994 13.2851 4.89647C7.46529 8.78663 3.15435 14.5956 1.17236 21.2088C1.05145 21.6136 0.920017 22.05 0.877959 22.1866C0.835901 22.3233 0.751786 22.6387 0.693957 22.8963C0.636127 23.1539 0.541497 23.5482 0.488924 23.7742C0.252348 24.7941 0.0788558 26.224 0.136686 26.6235C0.341718 28.0061 2.30268 28.842 6.10367 29.1837C7.94896 29.3466 24.4304 29.3939 24.4304 29.2362C24.4304 29.1363 24.3463 29.1048 23.5262 28.8893C23.216 28.8104 22.7376 28.679 22.4537 28.6001C22.1698 28.5213 21.602 28.3688 21.1814 28.2584C20.7609 28.148 20.0827 27.964 19.6674 27.8536C19.252 27.7432 18.5896 27.5645 18.2006 27.4646C16.86 27.1072 15.9768 26.8706 15.6824 26.7865C15.5194 26.7392 15.0568 26.613 14.6572 26.5079C14.2524 26.4027 13.6846 26.245 13.385 26.1662C12.344 25.877 10.2043 25.3145 9.94145 25.2567C9.51036 25.1621 9.46305 25.0254 9.64179 24.3998C9.8258 23.7532 9.75219 23.7637 11.1401 24.1527C11.9445 24.3788 12.4649 24.5207 13.6058 24.8256C14.0211 24.936 14.6835 25.1148 15.0725 25.2199C15.4616 25.325 16.6182 25.6299 17.6381 25.9033C18.658 26.1767 19.6463 26.4395 19.8356 26.4921C20.0249 26.5447 20.5085 26.6813 20.9081 26.7865C22.0068 27.0861 22.2329 27.1492 23.379 27.4699C23.9573 27.6329 24.504 27.7643 24.5934 27.7643C24.7354 27.7643 24.7354 27.7432 24.5776 27.5698C24.483 27.4646 24.3621 27.3753 24.3148 27.3753C24.2675 27.3753 23.91 27.186 23.5262 26.9494C22.9216 26.5867 22.2119 26.1714 20.5453 25.2146C20.3718 25.1148 20.0827 24.9465 19.9092 24.8467C19.7357 24.7468 18.7579 24.179 17.7327 23.5902C16.7128 23.0015 15.3249 22.1971 14.6519 21.8081C13.979 21.4191 13.2325 20.988 12.9907 20.8514C12.2862 20.4571 11.4293 19.9261 11.4293 19.8788C11.4293 19.7895 11.9602 18.9168 12.0549 18.8537C12.1074 18.8169 12.2021 18.8222 12.2546 18.8642C12.3125 18.9063 12.5964 19.0745 12.8908 19.2322C13.1852 19.3952 14.0684 19.8999 14.8465 20.3572C15.6245 20.8146 16.8547 21.5295 17.5855 21.9501C18.311 22.3706 19.047 22.7912 19.2205 22.8911C19.394 22.991 19.6831 23.1539 19.8566 23.2538C20.0301 23.3537 20.4086 23.5745 20.6925 23.7427C20.9764 23.9109 21.2288 24.0476 21.2498 24.0476C21.2708 24.0476 21.6441 24.2684 22.0857 24.5365C22.5273 24.8046 22.9006 25.0254 22.9216 25.0254C22.9426 25.0254 23.4368 25.3093 24.0151 25.651C25.198 26.3554 25.2558 26.3817 25.2874 26.245C25.2979 26.1924 22.9426 23.7742 20.0511 20.8724C17.1597 17.9705 14.7624 15.5366 14.7203 15.4682C14.673 15.3894 14.8097 15.1896 15.1146 14.9005L15.5825 14.4589L20.9817 19.8631C23.952 22.8332 26.4282 25.283 26.4808 25.2988C26.6227 25.3461 26.6017 25.1148 26.444 24.9308C26.3704 24.8467 25.9708 24.1843 25.5502 23.4588C25.1349 22.7334 24.7091 21.9974 24.6092 21.8239C24.5093 21.6504 24.3463 21.3613 24.2464 21.1878C24.1465 21.0143 23.9257 20.6358 23.7575 20.352C23.5893 20.0681 23.4526 19.8105 23.4526 19.7789C23.4526 19.7474 23.3737 19.6107 23.2738 19.4635C23.174 19.3216 22.9584 18.9641 22.7954 18.6645C22.6325 18.3701 22.0068 17.2714 21.4023 16.22C20.0354 13.8491 20.0301 13.8386 19.6568 13.213C19.4886 12.9291 19.3467 12.6663 19.3467 12.6242C19.3467 12.5874 19.2573 12.4455 19.1522 12.3088C19.047 12.1721 18.9576 12.0091 18.9576 11.9461C18.9576 11.8462 19.8777 11.2416 20.0354 11.2364C20.0669 11.2364 20.4612 11.883 20.9081 12.6768C21.3602 13.4706 21.9858 14.5483 22.296 15.074C22.6062 15.5997 22.8638 16.0518 22.8638 16.0833C22.8638 16.1148 22.9426 16.2568 23.0425 16.3987C23.1424 16.5407 23.358 16.8981 23.5209 17.1978C23.6839 17.4922 24.2254 18.4384 24.7196 19.3006C25.219 20.1627 25.7342 21.0616 25.8657 21.3035C26.0023 21.5453 26.2021 21.8975 26.3178 22.0868C26.5386 22.4547 26.5701 22.5021 27.3009 23.7848C27.8161 24.689 28.0264 24.7783 27.7898 23.9898C27.711 23.7217 27.5322 23.0856 27.3955 22.5757C26.9066 20.7462 26.6017 19.6107 26.3283 18.6172C26.2547 18.349 26.0339 17.5132 25.8341 16.7614C25.6343 16.0097 25.3452 14.911 25.1875 14.317C25.0298 13.7282 24.8142 12.9133 24.7038 12.5086C24.5987 12.1038 24.4725 11.6412 24.4252 11.4835C24.2937 11.0156 24.0624 10.1377 23.9993 9.85905C23.9468 9.64351 23.9836 9.58569 24.2096 9.49632C24.6144 9.33861 25.1822 9.25976 25.24 9.34912C25.2663 9.39644 25.4293 9.94842 25.5923 10.5793C25.9445 11.9198 26.4282 13.7387 26.691 14.706C27.1695 16.4671 27.2956 16.9297 27.5637 17.9811C27.7267 18.6014 27.9475 19.4372 28.0527 19.8368C28.1631 20.2416 28.3313 20.8777 28.4312 21.2562C28.5311 21.6347 28.7098 22.2918 28.8255 22.7228C28.9464 23.1539 29.0673 23.6533 29.1041 23.8373C29.1357 24.0213 29.2198 24.1895 29.2881 24.2106C29.3828 24.2421 29.409 22.644 29.409 16.4828C29.409 7.95603 29.3617 8.59738 29.9768 8.59738C30.5131 8.59738 30.4868 8.17156 30.4815 16.4408C30.4815 24.3735 30.5183 25.1043 30.8758 23.5482C30.9179 23.3589 30.9967 23.054 31.0493 22.8648C31.2701 22.0815 31.4541 21.3928 31.7012 20.4729C31.8432 19.9367 32.0692 19.0798 32.2059 18.5646C32.4372 17.6867 32.6423 16.9349 32.8315 16.2673C32.8788 16.1043 32.9997 15.6417 33.1101 15.2422C33.2153 14.8374 33.373 14.2696 33.4519 13.97C33.5307 13.6756 33.7147 12.9922 33.8567 12.456C33.9986 11.9198 34.1984 11.1733 34.2983 10.7948C34.3982 10.4163 34.5296 9.91688 34.5927 9.68557C34.7031 9.26501 34.7031 9.25975 35.0606 9.32284C35.5916 9.41746 35.9596 9.58043 35.9596 9.72762C35.9596 9.80122 35.8912 10.1114 35.8071 10.4268C35.723 10.737 35.5653 11.3257 35.4601 11.7253C35.355 12.1301 35.2288 12.5927 35.1815 12.7504C35.1342 12.9133 35.008 13.376 34.9029 13.7755C34.7977 14.1803 34.6347 14.7743 34.5454 15.095C34.456 15.4157 34.2562 16.1674 34.1038 16.7562C33.9513 17.345 33.7515 18.0967 33.6622 18.4174C33.5728 18.7381 33.4624 19.1586 33.4203 19.3479C33.373 19.5371 33.2941 19.842 33.2416 20.0313C33.0471 20.7252 32.842 21.4717 32.6002 22.3759C32.4635 22.8858 32.2848 23.5219 32.2006 23.7953C31.9325 24.6732 32.064 24.7993 32.474 24.0634C32.616 23.8058 32.8683 23.38 33.0313 23.1119C33.1943 22.8438 33.352 22.5546 33.3888 22.4758C33.4256 22.3969 33.5255 22.2182 33.6148 22.0868C33.7042 21.9501 33.9092 21.6031 34.0722 21.3035C34.3982 20.7094 34.5296 20.4781 35.2761 19.2007C35.7966 18.307 36.0016 17.9548 36.3486 17.345C36.4538 17.1557 36.6325 16.8508 36.7377 16.6616C36.8428 16.4723 37.0163 16.1779 37.1162 16.0044C37.2161 15.831 37.7838 14.8532 38.3727 13.8281C39.7027 11.5255 39.8762 11.2364 39.9288 11.2364C39.9971 11.2364 40.8804 11.7305 40.9802 11.8252C41.0328 11.8777 41.0276 11.9618 40.9697 12.0354C40.9172 12.1038 40.7384 12.4034 40.5754 12.6978C40.2022 13.3812 40.0707 13.6125 38.788 15.8257C38.3989 16.4986 37.9994 17.1925 37.8942 17.366C37.7944 17.5395 37.6261 17.8286 37.5262 18.0021C37.4263 18.1756 37.0215 18.8695 36.6325 19.5424C36.2435 20.2153 35.7913 21.0038 35.6284 21.3035C35.4654 21.5979 35.2604 21.9501 35.1657 22.0868C35.0711 22.2234 34.8661 22.5704 34.7031 22.87C34.5401 23.1644 34.1826 23.7953 33.904 24.2684C33.4098 25.12 33.3309 25.3093 33.4781 25.3093C33.5202 25.3093 35.9701 22.8911 38.9247 19.9367C41.8792 16.9822 44.3449 14.564 44.4027 14.564C44.4605 14.564 44.6919 14.7533 44.9127 14.9793L45.3227 15.3946L39.9498 20.7673C35.3287 25.3881 34.3824 26.3869 34.6137 26.3869C34.6347 26.3869 35.1973 26.0715 35.8597 25.6878C36.5221 25.304 38.1886 24.342 39.5608 23.5534C40.9329 22.7649 42.9097 21.6189 43.9611 21.0143C46.1323 19.7579 46.3794 19.616 46.821 19.3636C46.9945 19.2638 47.2942 19.0903 47.4835 18.9746C47.8567 18.7538 47.9461 18.7801 48.1564 19.1534C48.23 19.29 48.3509 19.4846 48.4192 19.595C48.4876 19.7053 48.5139 19.8368 48.4771 19.8893C48.4035 19.9945 47.699 20.4466 46.9893 20.8409C46.085 21.3403 41.3693 24.0581 41.2747 24.1317C41.2221 24.1738 40.9329 24.342 40.6385 24.505C40.1706 24.7625 37.6261 26.224 36.6325 26.8075C36.4432 26.9179 36.0595 27.1334 35.7756 27.2911C35.2499 27.5803 35.0921 27.8116 35.4812 27.7327C35.6757 27.6907 36.601 27.4436 38.1939 27.0073C38.4883 26.9284 39.0613 26.7707 39.4662 26.6656C39.871 26.5604 40.3336 26.4343 40.4913 26.3869C41.159 26.1977 41.916 25.9927 42.815 25.7561C43.3408 25.6194 44.1977 25.3934 44.7234 25.2514C45.6382 25.0096 46.0798 24.8887 47.2153 24.5786C47.9829 24.3683 48.7873 24.1475 49.3971 23.9845C49.6968 23.9057 49.9964 23.8373 50.07 23.8373C50.2646 23.8373 50.5537 24.9255 50.396 25.0675C50.3276 25.1305 49.66 25.3408 48.9082 25.5353C47.5834 25.877 46.8841 26.0663 45.3385 26.4868C44.9337 26.5972 44.2976 26.7655 43.919 26.8653C43.5405 26.9652 42.9938 27.1124 42.6994 27.1913C42.405 27.2701 41.7425 27.4489 41.2326 27.5855C38.9825 28.1796 38.2938 28.3636 37.153 28.6842C36.8428 28.7684 36.438 28.8788 36.2487 28.9208C35.6336 29.068 35.4706 29.1363 35.5232 29.2257C35.5548 29.273 39.2086 29.3098 44.0032 29.3098C50.5379 29.3098 52.767 29.2783 53.9394 29.1679C55.6164 29.0154 56.7152 28.8157 57.6037 28.5055C58.8128 28.0902 59.2071 27.8326 59.7486 27.1229C60.0641 26.7129 60.0798 26.0768 59.8117 25.0096C59.7066 24.6048 59.5699 24.0055 59.5015 23.6849C59.3911 23.1592 59.2702 22.6545 59.0231 21.7293C58.4606 19.6265 57.2567 16.835 55.9476 14.5956C54.1339 11.494 51.2845 8.28722 48.3194 6.02146C44.3396 2.97242 39.8552 1.06414 34.6348 0.186231C33.5991 0.0127507 33.0523 -0.00827716 29.8927 0.00223678C27.9318 0.00749374 26.26 0.0285216 26.1811 0.0442925L26.1916 0.0548064ZM5.66731 30.6451C2.88097 30.9132 1.10402 31.4915 0.352235 32.3641C0.0105135 32.7637 0 32.7952 0 33.5837C0 34.3723 0.0367988 34.6404 0.310176 35.9651C0.431092 36.5592 0.741272 37.8103 0.883218 38.2624C1.11979 39.03 1.38791 39.8448 1.46151 40.0235C1.50883 40.1287 1.68758 40.5913 1.86107 41.0486C4.01128 46.6631 8.4852 52.0252 13.7898 55.3423C16.2186 56.8616 18.8472 58.0444 21.3076 58.7331C21.5495 58.8014 21.8596 58.8908 21.9911 58.9328C22.1278 58.9749 22.4537 59.059 22.7218 59.1221C22.9899 59.1852 23.3632 59.2745 23.5525 59.3166C23.7417 59.3639 24.2254 59.4533 24.6249 59.5164C25.0298 59.5794 25.8183 59.7161 26.3861 59.816C27.2115 59.9632 27.8844 60 29.8454 60C32.1849 60 32.3584 59.9842 34.2457 59.6583C37.9363 59.0169 40.1969 58.3125 43.0516 56.9089C43.856 56.5146 44.6498 56.1098 44.8128 56.0152C48.2983 53.986 51.5578 51.121 53.7974 48.1193C54.1181 47.6934 54.4914 47.1888 54.6333 46.9995C55.3168 46.0901 56.8466 43.3407 57.5038 41.8424C57.9086 40.9225 58.4448 39.4242 58.7235 38.4464C58.7865 38.2309 58.918 37.7683 59.0179 37.4213C59.2282 36.6853 59.3648 36.0861 59.5226 35.124C59.5857 34.7455 59.675 34.2303 59.7223 33.9728C60.0798 32.0592 58.0821 30.971 53.4872 30.582C52.052 30.4611 35.376 30.4453 35.376 30.5662C35.376 30.6609 35.7072 30.7713 37.0373 31.1182C37.9468 31.36 39.9656 31.8963 42.0212 32.443C42.5837 32.5954 43.2987 32.7847 43.6089 32.8688C44.3186 33.0633 45.1545 33.2893 45.7854 33.4628C46.0535 33.5364 46.6055 33.6836 47.0051 33.794C47.4099 33.9044 48.1774 34.1094 48.7137 34.2566C49.2499 34.4038 49.8229 34.551 49.9859 34.5878C50.254 34.6509 50.2751 34.6824 50.254 35.0399C50.2277 35.4762 50.0543 35.9599 49.9228 35.9599C49.8229 35.9599 48.8766 35.7076 45.6855 34.8349C45.1703 34.693 44.2608 34.4511 42.7046 34.0411C42.1947 33.9044 41.5585 33.7362 41.2852 33.6626C41.017 33.589 40.5334 33.4576 40.2127 33.3682C39.892 33.2788 39.382 33.1422 39.0876 33.0633C38.7932 32.9844 38.2412 32.832 37.868 32.7374C37.4894 32.6375 36.8533 32.464 36.4485 32.3536C35.3024 32.0329 35.1447 32.0066 35.192 32.1433C35.213 32.2117 35.4496 32.3852 35.7177 32.5376C35.9859 32.6848 36.601 33.0423 37.0846 33.3261C37.5683 33.61 38.2044 33.9728 38.5041 34.1357C38.7985 34.2987 39.0876 34.4617 39.1402 34.5037C39.1928 34.5458 39.4031 34.6719 39.6029 34.7823C40.0287 35.0241 40.1917 35.1135 41.8267 36.065C43.0726 36.7852 43.4354 37.0008 44.0032 37.3214C46.9157 38.9984 48.1564 39.7186 48.2563 39.8027C48.4087 39.9236 48.3351 40.1865 48.0092 40.6806L47.7674 41.0486L47.2679 40.77C46.3689 40.2706 43.6404 38.6935 43.5405 38.6147C43.488 38.5726 43.1988 38.4044 42.9044 38.2467C42.61 38.0837 41.9686 37.721 41.4849 37.4371C40.6596 36.9535 40.4598 36.8378 39.6502 36.3752C38.441 35.6813 35.5285 33.9885 35.1026 33.7362C34.8188 33.568 34.5664 33.4313 34.5401 33.4313C34.2983 33.4313 35.213 34.3933 39.8237 39.0037C42.7519 41.9318 45.1493 44.3763 45.1493 44.4341C45.1493 44.5866 44.429 45.2595 44.266 45.2595C44.1872 45.2595 41.7163 42.8307 38.7722 39.8658C35.8281 36.9009 33.3888 34.5037 33.3467 34.5458C33.3047 34.5878 33.3572 34.756 33.4571 34.9295C33.557 35.103 33.8041 35.5288 33.9986 35.8758C34.1984 36.2227 34.4507 36.6748 34.5717 36.8799C34.6873 37.0796 34.8661 37.3898 34.966 37.5633C35.0658 37.7367 35.7335 38.8933 36.4432 40.1287C37.153 41.364 37.8206 42.5206 37.9205 42.6941C38.0204 42.8675 38.1886 43.1567 38.2885 43.3302C39.9288 46.1584 40.8383 47.7986 40.8383 47.909C40.8383 47.9826 40.6122 48.1718 40.3336 48.3243L39.8289 48.6029L39.6607 48.3768C39.5661 48.2559 38.9509 47.2045 38.2833 46.0533C37.6156 44.902 36.9322 43.7087 36.7587 43.409C36.5852 43.1094 36.3276 42.6467 36.1856 42.3786C36.0437 42.1105 35.8544 41.7794 35.7598 41.6479C35.6652 41.5112 35.4601 41.1643 35.2972 40.8646C35.1342 40.5702 34.5086 39.4715 33.8987 38.4201C33.2942 37.374 32.6528 36.249 32.474 35.9283C32.1323 35.308 31.8747 35.0925 31.9641 35.4973C31.9904 35.6234 32.1113 36.0808 32.2322 36.5119C32.6002 37.8524 32.7369 38.3465 32.9209 39.051C33.0208 39.4295 33.168 39.9762 33.2468 40.2706C33.4624 41.0539 33.7515 42.1421 34.0354 43.225C34.7452 45.9218 34.9029 46.5159 35.1657 47.4516C35.2604 47.7828 35.6231 49.1338 35.7545 49.649C35.8019 49.8383 35.8439 50.0433 35.8439 50.1011C35.8439 50.2326 35.4601 50.3955 34.9502 50.4849C34.5401 50.5585 34.5979 50.6531 34.2405 49.2495C34.0197 48.3874 33.7831 47.4989 33.4361 46.2267C33.3572 45.9324 33.21 45.3804 33.1101 45.0071C33.0103 44.6286 32.8631 44.0819 32.7842 43.7875C32.5792 43.041 32.29 41.9528 32.0009 40.8541C31.8642 40.3442 31.6644 39.5714 31.5487 39.1456C31.4331 38.7145 31.2543 38.0364 31.1439 37.6316C31.0388 37.2268 30.9021 36.7432 30.8495 36.5592C30.797 36.3699 30.7286 36.0755 30.6971 35.9021C30.5236 34.8086 30.471 36.3752 30.45 43.3302L30.4237 51.0737L29.8612 51.1052L29.2986 51.1367V43.3617C29.2986 39.0878 29.2618 35.5866 29.2145 35.5866C29.1409 35.5866 29.0095 35.9441 28.857 36.5644C28.7782 36.8799 28.4733 38.0259 28.284 38.7145C28.142 39.2245 27.7846 40.565 27.1484 42.9674C26.833 44.1502 26.6648 44.7758 26.1233 46.7524C25.8078 47.9142 25.2768 49.9224 25.219 50.18C25.1402 50.5532 25.0035 50.5848 24.3516 50.3955C23.7207 50.2115 23.7417 50.3324 24.1203 48.9761C24.2359 48.5714 24.3621 48.1087 24.4094 47.951C24.4567 47.7881 24.5776 47.3255 24.688 46.9259C24.9036 46.1058 25.361 44.3973 25.7973 42.7729C25.955 42.1841 26.1653 41.3903 26.2652 41.0118C26.3651 40.6333 26.5123 40.0761 26.6017 39.7659C26.9171 38.6147 27.0696 38.0522 27.3429 37.006C27.4954 36.4172 27.6689 35.8074 27.7267 35.655C27.8582 35.308 27.8582 35.2923 27.7109 35.2975C27.6426 35.2975 27.4533 35.5498 27.2851 35.86C27.1169 36.1702 26.7489 36.8168 26.465 37.3004C26.1811 37.7841 25.7868 38.4675 25.587 38.8144C25.3872 39.1614 25.1402 39.603 25.0298 39.7922C24.3358 40.9803 22.9742 43.3459 22.7271 43.798C22.5641 44.0924 22.3959 44.3815 22.3538 44.4341C22.3118 44.4867 21.786 45.3909 21.1867 46.437C20.5874 47.4832 20.0354 48.4031 19.9618 48.4767C19.8461 48.5924 19.7567 48.5661 19.3309 48.298C19.0575 48.1245 18.8367 47.9405 18.8367 47.8879C18.8367 47.8354 19.0838 47.3675 19.3887 46.8471C19.6937 46.3266 20.0722 45.659 20.2351 45.3593C20.3981 45.065 20.5664 44.7758 20.6084 44.7233C20.6873 44.6181 23.0425 40.5387 23.563 39.5925C23.726 39.2981 24.1097 38.6357 24.4094 38.1258C24.7143 37.6158 25.198 36.78 25.4819 36.2701C25.771 35.7601 26.0865 35.2239 26.1864 35.082C26.3388 34.8664 26.4334 34.509 26.3388 34.509C26.323 34.509 23.8942 36.9272 20.9396 39.8816C17.985 42.836 15.4984 45.2542 15.4143 45.2542C15.2513 45.2542 14.5363 44.5761 14.5363 44.4184C14.5363 44.3658 16.9336 41.9265 19.8619 38.9984C22.7902 36.0703 25.1875 33.6153 25.1875 33.5522C25.1875 33.3892 25.1191 33.3997 24.8142 33.61C24.6723 33.7099 23.9836 34.1094 23.2843 34.5037C22.5851 34.898 21.9017 35.2923 21.7703 35.3869C21.6336 35.4762 21.2866 35.6865 20.9869 35.8442C20.5558 36.0808 18.6159 37.1953 16.3185 38.52C12.9749 40.4546 12.0812 40.954 11.955 40.954C11.7552 40.954 11.2715 40.0603 11.3767 39.8921C11.424 39.8185 11.6343 39.6608 11.8498 39.5399C13.6636 38.5043 15.6824 37.3372 16.2712 36.985C16.6602 36.7484 17.0072 36.5592 17.0387 36.5592C17.0703 36.5592 17.2175 36.4803 17.3594 36.3804C17.5014 36.2806 17.8589 36.065 18.1585 35.9021C18.6527 35.6287 21.3024 34.1042 22.2171 33.568C22.4327 33.4418 23.0583 33.0843 23.6103 32.7742C24.872 32.0645 24.9299 31.8647 23.7838 32.2169C23.5157 32.301 22.8112 32.4955 22.2224 32.648C21.0868 32.9476 20.9659 32.9792 18.4582 33.6626C18.1638 33.7414 17.3489 33.9622 16.6497 34.1462C15.4563 34.4617 14.0947 34.8296 12.9118 35.1503C10.0466 35.9283 9.82579 35.9809 9.71539 35.9389C9.56293 35.881 9.31059 34.8191 9.42625 34.714C9.47356 34.6719 9.97825 34.5142 10.5408 34.3723C11.1033 34.2303 11.8972 34.0253 12.302 33.9149C13.5006 33.5943 15.1724 33.1422 16.1135 32.8793C16.6812 32.7216 17.1281 32.6059 19.4834 31.9856C20.2877 31.7753 21.3024 31.502 21.7335 31.3863C22.1646 31.2654 22.8217 31.0867 23.2002 30.9868C24.2359 30.7134 24.3253 30.6819 24.3253 30.5873C24.3253 30.4453 7.21294 30.5032 5.6568 30.6504L5.66731 30.6451Z" fill="#252E4A"/>
</svg>
