<svg width="24" height="24" viewBox="0 0 24 24" fill="none" xmlns="http://www.w3.org/2000/svg">
<path d="M7.13846 24H2.46154C1.78462 24 1.20513 23.759 0.723077 23.2769C0.241026 22.7949 0 22.2154 0 21.5385V16.8615C0.984615 16.8615 1.84615 16.5487 2.58462 15.9231C3.32308 15.2974 3.69231 14.5026 3.69231 13.5385C3.69231 12.5744 3.32308 11.7795 2.58462 11.1538C1.84615 10.5282 0.984615 10.2154 0 10.2154V5.53846C0 4.86154 0.241026 4.28205 0.723077 3.8C1.20513 3.31795 1.78462 3.07692 2.46154 3.07692H7.38462C7.38462 2.21538 7.68205 1.48718 8.27692 0.892308C8.87179 0.297436 9.6 0 10.4615 0C11.3231 0 12.0513 0.297436 12.6462 0.892308C13.241 1.48718 13.5385 2.21538 13.5385 3.07692H18.4615C19.1385 3.07692 19.7179 3.31795 20.2 3.8C20.6821 4.28205 20.9231 4.86154 20.9231 5.53846V10.4615C21.7846 10.4615 22.5128 10.759 23.1077 11.3538C23.7026 11.9487 24 12.6769 24 13.5385C24 14.4 23.7026 15.1282 23.1077 15.7231C22.5128 16.3179 21.7846 16.6154 20.9231 16.6154V21.5385C20.9231 22.2154 20.6821 22.7949 20.2 23.2769C19.7179 23.759 19.1385 24 18.4615 24H13.7846C13.7846 22.9744 13.4615 22.1026 12.8154 21.3846C12.1692 20.6667 11.3846 20.3077 10.4615 20.3077C9.53846 20.3077 8.75385 20.6667 8.10769 21.3846C7.46154 22.1026 7.13846 22.9744 7.13846 24ZM2.46154 21.5385H5.07692C5.56923 20.1846 6.35897 19.2308 7.44615 18.6769C8.53333 18.1231 9.53846 17.8462 10.4615 17.8462C11.3846 17.8462 12.3897 18.1231 13.4769 18.6769C14.5641 19.2308 15.3538 20.1846 15.8462 21.5385H18.4615V14.1538H20.9231C21.0872 14.1538 21.2308 14.0923 21.3538 13.9692C21.4769 13.8462 21.5385 13.7026 21.5385 13.5385C21.5385 13.3744 21.4769 13.2308 21.3538 13.1077C21.2308 12.9846 21.0872 12.9231 20.9231 12.9231H18.4615V5.53846H11.0769V3.07692C11.0769 2.91282 11.0154 2.76923 10.8923 2.64615C10.7692 2.52308 10.6256 2.46154 10.4615 2.46154C10.2974 2.46154 10.1538 2.52308 10.0308 2.64615C9.90769 2.76923 9.84615 2.91282 9.84615 3.07692V5.53846H2.46154V8.24615C3.56923 8.65641 4.46154 9.34359 5.13846 10.3077C5.81538 11.2718 6.15385 12.3487 6.15385 13.5385C6.15385 14.7077 5.81538 15.7744 5.13846 16.7385C4.46154 17.7026 3.56923 18.4 2.46154 18.8308V21.5385Z" fill="#252E4A"/>
</svg>
