<svg width="24" height="26" viewBox="0 0 24 26" fill="none" xmlns="http://www.w3.org/2000/svg">
<path d="M3.78713 26V20.41C2.58787 19.2833 1.65687 17.9671 0.994121 16.4613C0.331374 14.9554 0 13.3683 0 11.7C0 8.45 1.10458 5.6875 3.31374 3.4125C5.5229 1.1375 8.20545 0 11.3614 0C13.9913 0 16.3215 0.79625 18.3518 2.38875C20.3821 3.98125 21.7024 6.05583 22.3125 8.6125L23.9536 15.275C24.0588 15.6867 23.9851 16.0604 23.7327 16.3962C23.4802 16.7321 23.1436 16.9 22.7228 16.9H20.198V20.8C20.198 21.515 19.9508 22.1271 19.4564 22.6362C18.9619 23.1454 18.3676 23.4 17.6733 23.4H15.1485V26H12.6238V20.8H17.6733V14.3H21.0817L19.8824 9.2625C19.3985 7.29083 18.3676 5.6875 16.7896 4.4525C15.2116 3.2175 13.4022 2.6 11.3614 2.6C8.92079 2.6 6.83787 3.4775 5.11262 5.2325C3.38738 6.9875 2.52475 9.12167 2.52475 11.635C2.52475 12.935 2.78249 14.17 3.29796 15.34C3.81343 16.51 4.54455 17.55 5.49134 18.46L6.31188 19.24V26H3.78713ZM11.3614 18.2C11.7191 18.2 12.0189 18.0754 12.2608 17.8263C12.5028 17.5771 12.6238 17.2683 12.6238 16.9C12.6238 16.5317 12.5028 16.2229 12.2608 15.9737C12.0189 15.7246 11.7191 15.6 11.3614 15.6C11.0037 15.6 10.7039 15.7246 10.4619 15.9737C10.22 16.2229 10.099 16.5317 10.099 16.9C10.099 17.2683 10.22 17.5771 10.4619 17.8263C10.7039 18.0754 11.0037 18.2 11.3614 18.2ZM10.4146 14.04H12.3397C12.3397 13.4983 12.4081 13.0596 12.5449 12.7237C12.6816 12.3879 12.9604 11.9817 13.3812 11.505C13.7599 11.0717 14.1281 10.6329 14.4858 10.1887C14.8434 9.74458 15.0223 9.165 15.0223 8.45C15.0223 7.54 14.6804 6.77083 13.9966 6.1425C13.3128 5.51417 12.466 5.2 11.4561 5.2C10.6145 5.2 9.8518 5.44917 9.16801 5.9475C8.48422 6.44583 8.00557 7.09583 7.73205 7.8975L9.46782 8.645C9.6151 8.16833 9.87284 7.78375 10.241 7.49125C10.6092 7.19875 11.0142 7.0525 11.4561 7.0525C11.9189 7.0525 12.3029 7.1825 12.608 7.4425C12.9131 7.7025 13.0656 8.03833 13.0656 8.45C13.0656 8.905 12.9341 9.31125 12.6711 9.66875C12.4081 10.0262 12.0978 10.3892 11.7401 10.7575C11.3193 11.2125 10.9932 11.6675 10.7618 12.1225C10.5303 12.5775 10.4146 13.2167 10.4146 14.04Z" fill="#252E4A"/>
</svg>
