<svg width="33" height="35" viewBox="0 0 33 35" fill="none" xmlns="http://www.w3.org/2000/svg">
<g clip-path="url(#clip0_374_6140)">
<path d="M12.4583 19.5L13.9167 14.75L10.0833 11.6667H14.8333L16.3333 7L17.8333 11.6667H22.5833L18.7083 14.75L20.1667 19.5L16.3333 16.5417L12.4583 19.5ZM6.33333 35V22.125C5.27778 20.9583 4.45833 19.625 3.875 18.125C3.29167 16.625 3 15.0278 3 13.3333C3 9.61111 4.29167 6.45833 6.875 3.875C9.45833 1.29167 12.6111 0 16.3333 0C20.0556 0 23.2083 1.29167 25.7917 3.875C28.375 6.45833 29.6667 9.61111 29.6667 13.3333C29.6667 15.0278 29.375 16.625 28.7917 18.125C28.2083 19.625 27.3889 20.9583 26.3333 22.125V35L16.3333 31.6667L6.33333 35ZM23.4167 20.4167C25.3611 18.4722 26.3333 16.1111 26.3333 13.3333C26.3333 10.5556 25.3611 8.19444 23.4167 6.25C21.4722 4.30556 19.1111 3.33333 16.3333 3.33333C13.5556 3.33333 11.1944 4.30556 9.25 6.25C7.30556 8.19444 6.33333 10.5556 6.33333 13.3333C6.33333 16.1111 7.30556 18.4722 9.25 20.4167C11.1944 22.3611 13.5556 23.3333 16.3333 23.3333C19.1111 23.3333 21.4722 22.3611 23.4167 20.4167ZM9.66667 30.0417L16.3333 28.3333L23 30.0417V24.875C22.0278 25.4306 20.9792 25.8681 19.8542 26.1875C18.7292 26.5069 17.5556 26.6667 16.3333 26.6667C15.1111 26.6667 13.9375 26.5069 12.8125 26.1875C11.6875 25.8681 10.6389 25.4306 9.66667 24.875V30.0417Z" fill="#E6D443"/>
</g>
<defs>
<clipPath id="clip0_374_6140">
<rect width="32.6667" height="35" fill="white"/>
</clipPath>
</defs>
</svg>
